<?xml version="1.0" encoding="UTF-8" standalone="no"?>
<!-- Created with Inkscape (http://www.inkscape.org/) -->

<svg
   version="1.1"
   id="svg5331"
   width="257.33334"
   height="78.666664"
   viewBox="0 0 257.33334 78.666664"
   sodipodi:docname="helmholtzai.svg"
   inkscape:version="1.2.1 (9c6d41e, 2022-07-14)"
   xmlns:inkscape="http://www.inkscape.org/namespaces/inkscape"
   xmlns:sodipodi="http://sodipodi.sourceforge.net/DTD/sodipodi-0.dtd"
   xmlns="http://www.w3.org/2000/svg"
   xmlns:svg="http://www.w3.org/2000/svg">
  <defs
     id="defs5335">
    <clipPath
       clipPathUnits="userSpaceOnUse"
       id="clipPath5349">
      <path
         d="M 0,0 H 192.5 V 58 H 0 Z"
         id="path5347" />
    </clipPath>
    <clipPath
       clipPathUnits="userSpaceOnUse"
       id="clipPath5359">
      <path
         d="M 0,0 H 194 V 59 H 0 Z"
         id="path5357" />
    </clipPath>
    <clipPath
       clipPathUnits="userSpaceOnUse"
       id="clipPath5373">
      <path
         d="M 0,0 H 194 V 59 H 0 Z"
         id="path5371" />
    </clipPath>
    <clipPath
       clipPathUnits="userSpaceOnUse"
       id="clipPath5387">
      <path
         d="M 0,0 H 194 V 59 H 0 Z"
         id="path5385" />
    </clipPath>
    <clipPath
       clipPathUnits="userSpaceOnUse"
       id="clipPath5401">
      <path
         d="M 0,0 H 194 V 59 H 0 Z"
         id="path5399" />
    </clipPath>
    <clipPath
       clipPathUnits="userSpaceOnUse"
       id="clipPath5415">
      <path
         d="M 0,0 H 194 V 59 H 0 Z"
         id="path5413" />
    </clipPath>
    <clipPath
       clipPathUnits="userSpaceOnUse"
       id="clipPath5429">
      <path
         d="M 0,0 H 194 V 59 H 0 Z"
         id="path5427" />
    </clipPath>
    <clipPath
       clipPathUnits="userSpaceOnUse"
       id="clipPath5443">
      <path
         d="M 0,0 H 194 V 59 H 0 Z"
         id="path5441" />
    </clipPath>
    <clipPath
       clipPathUnits="userSpaceOnUse"
       id="clipPath5457">
      <path
         d="M 0,0 H 194 V 59 H 0 Z"
         id="path5455" />
    </clipPath>
    <clipPath
       clipPathUnits="userSpaceOnUse"
       id="clipPath5471">
      <path
         d="M 0,0 H 194 V 59 H 0 Z"
         id="path5469" />
    </clipPath>
    <clipPath
       clipPathUnits="userSpaceOnUse"
       id="clipPath5485">
      <path
         d="M 0,0 H 194 V 59 H 0 Z"
         id="path5483" />
    </clipPath>
    <clipPath
       clipPathUnits="userSpaceOnUse"
       id="clipPath5499">
      <path
         d="M 0,0 H 194 V 59 H 0 Z"
         id="path5497" />
    </clipPath>
    <clipPath
       clipPathUnits="userSpaceOnUse"
       id="clipPath5513">
      <path
         d="M 0,0 H 194 V 59 H 0 Z"
         id="path5511" />
    </clipPath>
    <clipPath
       clipPathUnits="userSpaceOnUse"
       id="clipPath5527">
      <path
         d="M 0,0 H 194 V 59 H 0 Z"
         id="path5525" />
    </clipPath>
    <clipPath
       clipPathUnits="userSpaceOnUse"
       id="clipPath5541">
      <path
         d="M 0,0 H 194 V 59 H 0 Z"
         id="path5539" />
    </clipPath>
    <clipPath
       clipPathUnits="userSpaceOnUse"
       id="clipPath5555">
      <path
         d="M 0,0 H 194 V 59 H 0 Z"
         id="path5553" />
    </clipPath>
    <clipPath
       clipPathUnits="userSpaceOnUse"
       id="clipPath5569">
      <path
         d="M 0,0 H 194 V 59 H 0 Z"
         id="path5567" />
    </clipPath>
    <clipPath
       clipPathUnits="userSpaceOnUse"
       id="clipPath5583">
      <path
         d="M 0,0 H 194 V 59 H 0 Z"
         id="path5581" />
    </clipPath>
    <clipPath
       clipPathUnits="userSpaceOnUse"
       id="clipPath5597">
      <path
         d="M 0,0 H 194 V 59 H 0 Z"
         id="path5595" />
    </clipPath>
    <clipPath
       clipPathUnits="userSpaceOnUse"
       id="clipPath5611">
      <path
         d="M 0,0 H 194 V 59 H 0 Z"
         id="path5609" />
    </clipPath>
    <clipPath
       clipPathUnits="userSpaceOnUse"
       id="clipPath5625">
      <path
         d="M 0,0 H 194 V 59 H 0 Z"
         id="path5623" />
    </clipPath>
    <clipPath
       clipPathUnits="userSpaceOnUse"
       id="clipPath5639">
      <path
         d="M 0,0 H 194 V 59 H 0 Z"
         id="path5637" />
    </clipPath>
    <clipPath
       clipPathUnits="userSpaceOnUse"
       id="clipPath5653">
      <path
         d="M 0,0 H 194 V 59 H 0 Z"
         id="path5651" />
    </clipPath>
    <clipPath
       clipPathUnits="userSpaceOnUse"
       id="clipPath5667">
      <path
         d="M 0,0 H 194 V 59 H 0 Z"
         id="path5665" />
    </clipPath>
    <clipPath
       clipPathUnits="userSpaceOnUse"
       id="clipPath5681">
      <path
         d="M 0,0 H 194 V 59 H 0 Z"
         id="path5679" />
    </clipPath>
    <clipPath
       clipPathUnits="userSpaceOnUse"
       id="clipPath5695">
      <path
         d="M 0,0 H 194 V 59 H 0 Z"
         id="path5693" />
    </clipPath>
    <clipPath
       clipPathUnits="userSpaceOnUse"
       id="clipPath5709">
      <path
         d="M 0,0 H 194 V 59 H 0 Z"
         id="path5707" />
    </clipPath>
    <clipPath
       clipPathUnits="userSpaceOnUse"
       id="clipPath5723">
      <path
         d="M 0,0 H 194 V 59 H 0 Z"
         id="path5721" />
    </clipPath>
    <clipPath
       clipPathUnits="userSpaceOnUse"
       id="clipPath5737">
      <path
         d="M 0,0 H 194 V 59 H 0 Z"
         id="path5735" />
    </clipPath>
    <clipPath
       clipPathUnits="userSpaceOnUse"
       id="clipPath5751">
      <path
         d="M 0,0 H 194 V 59 H 0 Z"
         id="path5749" />
    </clipPath>
    <clipPath
       clipPathUnits="userSpaceOnUse"
       id="clipPath5765">
      <path
         d="M 0,0 H 194 V 59 H 0 Z"
         id="path5763" />
    </clipPath>
    <clipPath
       clipPathUnits="userSpaceOnUse"
       id="clipPath5779">
      <path
         d="M 0,0 H 194 V 59 H 0 Z"
         id="path5777" />
    </clipPath>
    <clipPath
       clipPathUnits="userSpaceOnUse"
       id="clipPath5793">
      <path
         d="M 0,0 H 194 V 59 H 0 Z"
         id="path5791" />
    </clipPath>
    <clipPath
       clipPathUnits="userSpaceOnUse"
       id="clipPath5807">
      <path
         d="M 0,0 H 194 V 59 H 0 Z"
         id="path5805" />
    </clipPath>
    <clipPath
       clipPathUnits="userSpaceOnUse"
       id="clipPath5821">
      <path
         d="M 0,0 H 194 V 59 H 0 Z"
         id="path5819" />
    </clipPath>
    <clipPath
       clipPathUnits="userSpaceOnUse"
       id="clipPath5835">
      <path
         d="M 0,0 H 194 V 59 H 0 Z"
         id="path5833" />
    </clipPath>
    <clipPath
       clipPathUnits="userSpaceOnUse"
       id="clipPath5849">
      <path
         d="M 0,0 H 194 V 59 H 0 Z"
         id="path5847" />
    </clipPath>
    <clipPath
       clipPathUnits="userSpaceOnUse"
       id="clipPath5863">
      <path
         d="M 0,0 H 194 V 59 H 0 Z"
         id="path5861" />
    </clipPath>
    <clipPath
       clipPathUnits="userSpaceOnUse"
       id="clipPath5877">
      <path
         d="M 0,0 H 194 V 59 H 0 Z"
         id="path5875" />
    </clipPath>
    <clipPath
       clipPathUnits="userSpaceOnUse"
       id="clipPath5891">
      <path
         d="M 0,0 H 194 V 59 H 0 Z"
         id="path5889" />
    </clipPath>
    <clipPath
       clipPathUnits="userSpaceOnUse"
       id="clipPath5905">
      <path
         d="M 0,0 H 194 V 59 H 0 Z"
         id="path5903" />
    </clipPath>
    <clipPath
       clipPathUnits="userSpaceOnUse"
       id="clipPath5919">
      <path
         d="M 0,0 H 194 V 59 H 0 Z"
         id="path5917" />
    </clipPath>
    <clipPath
       clipPathUnits="userSpaceOnUse"
       id="clipPath5933">
      <path
         d="M 0,0 H 194 V 59 H 0 Z"
         id="path5931" />
    </clipPath>
    <clipPath
       clipPathUnits="userSpaceOnUse"
       id="clipPath5947">
      <path
         d="M 0,0 H 194 V 59 H 0 Z"
         id="path5945" />
    </clipPath>
    <clipPath
       clipPathUnits="userSpaceOnUse"
       id="clipPath5961">
      <path
         d="M 0,0 H 194 V 59 H 0 Z"
         id="path5959" />
    </clipPath>
    <clipPath
       clipPathUnits="userSpaceOnUse"
       id="clipPath5975">
      <path
         d="M 0,0 H 194 V 59 H 0 Z"
         id="path5973" />
    </clipPath>
    <clipPath
       clipPathUnits="userSpaceOnUse"
       id="clipPath5989">
      <path
         d="M 0,0 H 194 V 59 H 0 Z"
         id="path5987" />
    </clipPath>
    <clipPath
       clipPathUnits="userSpaceOnUse"
       id="clipPath6003">
      <path
         d="M 0,0 H 194 V 59 H 0 Z"
         id="path6001" />
    </clipPath>
    <clipPath
       clipPathUnits="userSpaceOnUse"
       id="clipPath6017">
      <path
         d="M 0,0 H 194 V 59 H 0 Z"
         id="path6015" />
    </clipPath>
  </defs>
  <sodipodi:namedview
     id="namedview5333"
     pagecolor="#505050"
     bordercolor="#eeeeee"
     borderopacity="1"
     inkscape:showpageshadow="0"
     inkscape:pageopacity="0"
     inkscape:pagecheckerboard="0"
     inkscape:deskcolor="#505050"
     showgrid="false"
     inkscape:zoom="3.0000001"
     inkscape:cx="58.333332"
     inkscape:cy="39.333332"
     inkscape:window-width="1920"
     inkscape:window-height="1086"
     inkscape:window-x="1512"
     inkscape:window-y="25"
     inkscape:window-maximized="1"
     inkscape:current-layer="g5339">
    <inkscape:page
       x="0"
       y="0"
       id="page5337"
       width="257.33334"
       height="78.666664" />
  </sodipodi:namedview>
  <g
     id="g5339"
     inkscape:groupmode="layer"
     inkscape:label="Page 1"
     transform="matrix(1.3333333,0,0,1.3333333,0,1.9666666e-6)">
    <g
       id="g5341" />
    <g
       id="g5343">
      <g
         id="g5345"
         clip-path="url(#clipPath5349)">
        <g
           id="g5351">
          <g
             id="g5353">
            <g
               id="g5355"
               clip-path="url(#clipPath5359)">
              <g
                 id="g5361">
                <path
                   d="m 173.031,13.16 h 5.051 l -2.539,-7.23 z m -1.453,4.113 -1.48,4.176 h -4.36 l 7.383,-20.965 c 0.09,-0.3 0.332,-0.48 0.633,-0.48 h 3.601 c 0.274,0 0.543,0.18 0.637,0.453 l 7.379,20.992 h -4.355 l -1.481,-4.176 h -7.957"
                   style="fill:#14c8ff;fill-opacity:1;fill-rule:nonzero;stroke:none"
                   id="path5363" />
              </g>
            </g>
          </g>
        </g>
        <g
           id="g5365">
          <g
             id="g5367">
            <g
               id="g5369"
               clip-path="url(#clipPath5373)">
              <g
                 id="g5375">
                <path
                   d="m 188.387,0.004 h 4.113 v 21.445 h -4.113 z"
                   style="fill:#14c8ff;fill-opacity:1;fill-rule:nonzero;stroke:none"
                   id="path5377" />
              </g>
            </g>
          </g>
        </g>
        <g
           id="g5379">
          <g
             id="g5381">
            <g
               id="g5383"
               clip-path="url(#clipPath5387)">
              <g
                 id="g5389">
                <path
                   d="M 12.07,8.688 V 0 h 4.121 V 21.465 H 12.07 v -8.66 H 4.715 v 8.66 H 0.598 V 0 h 4.117 v 8.688 h 7.355"
                   style="fill:#002864;fill-opacity:1;fill-rule:nonzero;stroke:none"
                   id="path5391" />
              </g>
            </g>
          </g>
        </g>
        <g
           id="g5393">
          <g
             id="g5395">
            <g
               id="g5397"
               clip-path="url(#clipPath5401)">
              <g
                 id="g5403">
                <path
                   d="m 34.336,0 v 4.117 h -9.418 v 4.571 h 8.176 v 4.117 h -8.176 v 4.543 h 9.418 v 4.117 H 22.832 c -0.184,0 -0.367,-0.063 -0.488,-0.215 L 21.016,19.918 C 20.863,19.797 20.801,19.617 20.801,19.434 V 2.027 c 0,-0.179 0.062,-0.363 0.215,-0.484 L 22.344,0.211 C 22.465,0.09 22.648,0 22.832,0 h 11.504"
                   style="fill:#002864;fill-opacity:1;fill-rule:nonzero;stroke:none"
                   id="path5405" />
              </g>
            </g>
          </g>
        </g>
        <g
           id="g5407">
          <g
             id="g5409">
            <g
               id="g5411"
               clip-path="url(#clipPath5415)">
              <g
                 id="g5417">
                <path
                   d="m 40.703,21.465 c -0.183,0 -0.363,-0.063 -0.484,-0.215 L 38.887,19.918 C 38.734,19.797 38.672,19.617 38.672,19.434 V 0 h 4.117 v 17.348 h 8.961 v 4.117 H 40.703"
                   style="fill:#002864;fill-opacity:1;fill-rule:nonzero;stroke:none"
                   id="path5419" />
              </g>
            </g>
          </g>
        </g>
        <g
           id="g5421">
          <g
             id="g5423">
            <g
               id="g5425"
               clip-path="url(#clipPath5429)">
              <g
                 id="g5431">
                <path
                   d="M 73.855,0 V 21.465 H 69.738 V 9.598 l -3.355,7.019 c -0.121,0.242 -0.363,0.395 -0.61,0.395 h -2.421 c -0.27,0 -0.512,-0.153 -0.633,-0.395 L 59.359,9.598 V 21.465 H 55.242 V 0 h 4.117 L 64.562,10.898 69.738,0 h 4.117"
                   style="fill:#002864;fill-opacity:1;fill-rule:nonzero;stroke:none"
                   id="path5433" />
              </g>
            </g>
          </g>
        </g>
        <g
           id="g5435">
          <g
             id="g5437">
            <g
               id="g5439"
               clip-path="url(#clipPath5443)">
              <g
                 id="g5445">
                <path
                   d="M 89.672,8.688 V 0 h 4.121 v 21.465 h -4.121 v -8.66 h -7.356 v 8.66 H 78.199 V 0 h 4.117 v 8.688 h 7.356"
                   style="fill:#002864;fill-opacity:1;fill-rule:nonzero;stroke:none"
                   id="path5447" />
              </g>
            </g>
          </g>
        </g>
        <g
           id="g5449">
          <g
             id="g5451">
            <g
               id="g5453"
               clip-path="url(#clipPath5457)">
              <g
                 id="g5459">
                <path
                   d="M 109.363,15.348 V 6.145 c 0,-0.18 -0.093,-0.364 -0.211,-0.485 l -1.3,-1.332 c -0.157,-0.121 -0.336,-0.211 -0.516,-0.211 h -3.695 c -0.18,0 -0.332,0.09 -0.485,0.211 l -1.301,1.332 c -0.152,0.121 -0.21,0.305 -0.21,0.485 v 9.203 c 0,0.183 0.058,0.332 0.21,0.484 l 1.301,1.301 c 0.153,0.152 0.305,0.215 0.485,0.215 h 3.695 c 0.18,0 0.359,-0.063 0.516,-0.215 l 1.3,-1.301 c 0.118,-0.152 0.211,-0.301 0.211,-0.484 z m 0.969,-14.321 2.148,2.121 c 0.637,0.637 1,1.512 1,2.422 v 10.321 c 0,0.91 -0.363,1.789 -1,2.425 l -2.148,2.149 c -0.637,0.637 -1.516,1 -2.422,1 h -4.812 c -0.91,0 -1.817,-0.336 -2.453,-1 L 98.523,18.316 C 97.891,17.68 97.527,16.801 97.527,15.891 V 5.57 c 0,-0.91 0.364,-1.785 0.996,-2.422 l 2.122,-2.121 C 101.309,0.363 102.188,0 103.098,0 h 4.812 c 0.906,0 1.754,0.391 2.422,1.027"
                   style="fill:#002864;fill-opacity:1;fill-rule:nonzero;stroke:none"
                   id="path5461" />
              </g>
            </g>
          </g>
        </g>
        <g
           id="g5463">
          <g
             id="g5465">
            <g
               id="g5467"
               clip-path="url(#clipPath5471)">
              <g
                 id="g5473">
                <path
                   d="m 119.152,21.465 c -0.183,0 -0.367,-0.063 -0.488,-0.215 l -1.328,-1.332 c -0.152,-0.121 -0.215,-0.301 -0.215,-0.484 V 0 h 4.117 v 17.348 h 8.961 v 4.117 h -11.047"
                   style="fill:#002864;fill-opacity:1;fill-rule:nonzero;stroke:none"
                   id="path5475" />
              </g>
            </g>
          </g>
        </g>
        <g
           id="g5477">
          <g
             id="g5479">
            <g
               id="g5481"
               clip-path="url(#clipPath5485)">
              <g
                 id="g5487">
                <path
                   d="M 129.902,4.117 V 0 h 15.5 v 4.117 h -5.687 v 17.348 h -4.117 V 4.117 h -5.696"
                   style="fill:#002864;fill-opacity:1;fill-rule:nonzero;stroke:none"
                   id="path5489" />
              </g>
            </g>
          </g>
        </g>
        <g
           id="g5491">
          <g
             id="g5493">
            <g
               id="g5495"
               clip-path="url(#clipPath5499)">
              <g
                 id="g5501">
                <path
                   d="m 161.34,0.211 1.332,1.332 c 0.121,0.121 0.211,0.305 0.211,0.484 v 1.059 l -9.024,14.262 h 8.903 v 4.117 h -12.289 c -0.184,0 -0.368,-0.063 -0.489,-0.215 l -1.328,-1.332 c -0.121,-0.121 -0.215,-0.301 -0.215,-0.484 v -1.239 l 8.903,-14.078 h -9.02 V 0 h 12.531 c 0.18,0 0.364,0.09 0.485,0.211"
                   style="fill:#002864;fill-opacity:1;fill-rule:nonzero;stroke:none"
                   id="path5503" />
              </g>
            </g>
          </g>
        </g>
        <g
           id="g5505">
          <g
             id="g5507">
            <g
               id="g5509"
               clip-path="url(#clipPath5513)">
              <g
                 id="g5515">
                <path
                   d="m 4.012,33.004 -1.61,5.078 H 5.617 Z M 4.516,31.516 8.035,41.785 H 6.84 L 5.938,39.078 H 2.098 L 1.18,41.785 H 0 L 3.52,31.516 h 0.996"
                   style="fill:#002864;fill-opacity:1;fill-rule:nonzero;stroke:none"
                   id="path5517" />
              </g>
            </g>
          </g>
        </g>
        <g
           id="g5519">
          <g
             id="g5521">
            <g
               id="g5523"
               clip-path="url(#clipPath5527)">
              <g
                 id="g5529">
                <path
                   d="m 11.582,36.43 c 1.242,0 1.594,-0.032 2.066,-0.2 0.719,-0.257 1.149,-0.918 1.149,-1.773 0,-0.766 -0.367,-1.379 -0.965,-1.637 -0.488,-0.215 -0.824,-0.246 -2.281,-0.246 h -0.688 v 3.856 z m -0.059,-4.852 c 1.575,0 2.157,0.063 2.829,0.32 1.027,0.383 1.656,1.364 1.656,2.575 0,1.343 -0.707,2.265 -2.098,2.769 l 2.676,4.543 h -1.375 l -2.57,-4.359 h -1.778 v 4.359 H 9.715 V 31.578 h 1.808"
                   style="fill:#002864;fill-opacity:1;fill-rule:nonzero;stroke:none"
                   id="path5531" />
              </g>
            </g>
          </g>
        </g>
        <g
           id="g5533">
          <g
             id="g5535">
            <g
               id="g5537"
               clip-path="url(#clipPath5541)">
              <g
                 id="g5543">
                <path
                   d="m 23.656,31.578 v 0.996 h -2.664 v 9.211 h -1.148 v -9.211 h -2.649 v -0.996 h 6.461"
                   style="fill:#002864;fill-opacity:1;fill-rule:nonzero;stroke:none"
                   id="path5545" />
              </g>
            </g>
          </g>
        </g>
        <g
           id="g5547">
          <g
             id="g5549">
            <g
               id="g5551"
               clip-path="url(#clipPath5555)">
              <g
                 id="g5557">
                <path
                   d="m 25.305,31.578 h 1.18 v 10.207 h -1.18 z"
                   style="fill:#002864;fill-opacity:1;fill-rule:nonzero;stroke:none"
                   id="path5559" />
              </g>
            </g>
          </g>
        </g>
        <g
           id="g5561">
          <g
             id="g5563">
            <g
               id="g5565"
               clip-path="url(#clipPath5569)">
              <g
                 id="g5571">
                <path
                   d="m 34.41,36 v 0.996 h -4.133 v 4.789 H 29.133 V 31.578 h 5.597 v 0.996 H 30.277 V 36 h 4.133"
                   style="fill:#002864;fill-opacity:1;fill-rule:nonzero;stroke:none"
                   id="path5573" />
              </g>
            </g>
          </g>
        </g>
        <g
           id="g5575">
          <g
             id="g5577">
            <g
               id="g5579"
               clip-path="url(#clipPath5583)">
              <g
                 id="g5585">
                <path
                   d="m 36.613,31.578 h 1.176 v 10.207 h -1.176 z"
                   style="fill:#002864;fill-opacity:1;fill-rule:nonzero;stroke:none"
                   id="path5587" />
              </g>
            </g>
          </g>
        </g>
        <g
           id="g5589">
          <g
             id="g5591">
            <g
               id="g5593"
               clip-path="url(#clipPath5597)">
              <g
                 id="g5599">
                <path
                   d="m 46.422,34.41 c -0.293,-1.332 -1.086,-2.004 -2.328,-2.004 -1.821,0 -2.969,1.668 -2.969,4.285 0,2.633 1.148,4.27 2.984,4.27 1.426,0 2.297,-0.934 2.465,-2.633 h 1.086 c -0.183,2.313 -1.469,3.641 -3.504,3.641 -2.601,0 -4.254,-2.051 -4.254,-5.246 0,-1.84 0.52,-3.309 1.485,-4.258 0.703,-0.672 1.699,-1.07 2.722,-1.07 1.133,0 2.145,0.476 2.743,1.269 0.351,0.492 0.535,0.965 0.64,1.746 h -1.07"
                   style="fill:#002864;fill-opacity:1;fill-rule:nonzero;stroke:none"
                   id="path5601" />
              </g>
            </g>
          </g>
        </g>
        <g
           id="g5603">
          <g
             id="g5605">
            <g
               id="g5607"
               clip-path="url(#clipPath5611)">
              <g
                 id="g5613">
                <path
                   d="m 49.664,31.578 h 1.18 v 10.207 h -1.18 z"
                   style="fill:#002864;fill-opacity:1;fill-rule:nonzero;stroke:none"
                   id="path5615" />
              </g>
            </g>
          </g>
        </g>
        <g
           id="g5617">
          <g
             id="g5619">
            <g
               id="g5621"
               clip-path="url(#clipPath5625)">
              <g
                 id="g5627">
                <path
                   d="m 56.488,33.004 -1.605,5.078 h 3.211 z m 0.504,-1.488 3.52,10.269 H 59.32 l -0.906,-2.707 h -3.84 l -0.918,2.707 h -1.179 l 3.519,-10.269 h 0.996"
                   style="fill:#002864;fill-opacity:1;fill-rule:nonzero;stroke:none"
                   id="path5629" />
              </g>
            </g>
          </g>
        </g>
        <g
           id="g5631">
          <g
             id="g5633">
            <g
               id="g5635"
               clip-path="url(#clipPath5639)">
              <g
                 id="g5641">
                <path
                   d="m 63.371,31.578 v 9.215 h 4.363 v 0.992 H 62.195 V 31.578 h 1.176"
                   style="fill:#002864;fill-opacity:1;fill-rule:nonzero;stroke:none"
                   id="path5643" />
              </g>
            </g>
          </g>
        </g>
        <g
           id="g5645">
          <g
             id="g5647">
            <g
               id="g5649"
               clip-path="url(#clipPath5653)">
              <g
                 id="g5655">
                <path
                   d="m 73.363,31.578 h 1.18 v 10.207 h -1.18 z"
                   style="fill:#002864;fill-opacity:1;fill-rule:nonzero;stroke:none"
                   id="path5657" />
              </g>
            </g>
          </g>
        </g>
        <g
           id="g5659">
          <g
             id="g5661">
            <g
               id="g5663"
               clip-path="url(#clipPath5667)">
              <g
                 id="g5669">
                <path
                   d="m 78.426,31.578 4.898,8.496 v -8.496 h 1.071 v 10.207 h -1.254 l -4.868,-8.476 v 8.476 H 77.188 V 31.578 h 1.238"
                   style="fill:#002864;fill-opacity:1;fill-rule:nonzero;stroke:none"
                   id="path5671" />
              </g>
            </g>
          </g>
        </g>
        <g
           id="g5673">
          <g
             id="g5675">
            <g
               id="g5677"
               clip-path="url(#clipPath5681)">
              <g
                 id="g5683">
                <path
                   d="m 92.535,31.578 v 0.996 h -2.664 v 9.211 h -1.148 v -9.211 h -2.645 v -0.996 h 6.457"
                   style="fill:#002864;fill-opacity:1;fill-rule:nonzero;stroke:none"
                   id="path5685" />
              </g>
            </g>
          </g>
        </g>
        <g
           id="g5687">
          <g
             id="g5689">
            <g
               id="g5691"
               clip-path="url(#clipPath5695)">
              <g
                 id="g5697">
                <path
                   d="m 99.48,36 v 0.996 h -4.132 v 3.797 h 4.562 v 0.992 H 94.203 V 31.578 h 5.598 v 0.996 H 95.348 V 36 h 4.132"
                   style="fill:#002864;fill-opacity:1;fill-rule:nonzero;stroke:none"
                   id="path5699" />
              </g>
            </g>
          </g>
        </g>
        <g
           id="g5701">
          <g
             id="g5703">
            <g
               id="g5705"
               clip-path="url(#clipPath5709)">
              <g
                 id="g5711">
                <path
                   d="m 103.105,31.578 v 9.215 h 4.364 v 0.992 H 101.93 V 31.578 h 1.175"
                   style="fill:#002864;fill-opacity:1;fill-rule:nonzero;stroke:none"
                   id="path5713" />
              </g>
            </g>
          </g>
        </g>
        <g
           id="g5715">
          <g
             id="g5717">
            <g
               id="g5719"
               clip-path="url(#clipPath5723)">
              <g
                 id="g5725">
                <path
                   d="m 110.422,31.578 v 9.215 h 4.359 v 0.992 h -5.539 V 31.578 h 1.18"
                   style="fill:#002864;fill-opacity:1;fill-rule:nonzero;stroke:none"
                   id="path5727" />
              </g>
            </g>
          </g>
        </g>
        <g
           id="g5729">
          <g
             id="g5731">
            <g
               id="g5733"
               clip-path="url(#clipPath5737)">
              <g
                 id="g5739">
                <path
                   d="m 116.539,31.578 h 1.18 v 10.207 h -1.18 z"
                   style="fill:#002864;fill-opacity:1;fill-rule:nonzero;stroke:none"
                   id="path5741" />
              </g>
            </g>
          </g>
        </g>
        <g
           id="g5743">
          <g
             id="g5745">
            <g
               id="g5747"
               clip-path="url(#clipPath5751)">
              <g
                 id="g5753">
                <path
                   d="m 127.605,36.723 v 4.191 c -0.964,0.688 -2.128,1.055 -3.371,1.055 -2.738,0 -4.406,-2.004 -4.406,-5.309 0,-3.199 1.668,-5.265 4.258,-5.265 1.91,0 3.148,1.101 3.379,3 h -1.07 c -0.305,-1.348 -1.055,-1.989 -2.309,-1.989 -1.887,0 -3.031,1.621 -3.031,4.27 0,2.707 1.175,4.285 3.199,4.285 0.766,0 1.574,-0.231 2.308,-0.676 v -2.586 l -2.066,0.016 v -0.992 h 3.109"
                   style="fill:#002864;fill-opacity:1;fill-rule:nonzero;stroke:none"
                   id="path5755" />
              </g>
            </g>
          </g>
        </g>
        <g
           id="g5757">
          <g
             id="g5759">
            <g
               id="g5761"
               clip-path="url(#clipPath5765)">
              <g
                 id="g5767">
                <path
                   d="m 135.207,36 v 0.996 h -4.133 v 3.797 h 4.563 v 0.992 H 129.93 V 31.578 h 5.597 v 0.996 h -4.453 V 36 h 4.133"
                   style="fill:#002864;fill-opacity:1;fill-rule:nonzero;stroke:none"
                   id="path5769" />
              </g>
            </g>
          </g>
        </g>
        <g
           id="g5771">
          <g
             id="g5773">
            <g
               id="g5775"
               clip-path="url(#clipPath5779)">
              <g
                 id="g5781">
                <path
                   d="m 138.895,31.578 4.894,8.496 v -8.496 h 1.07 v 10.207 h -1.254 l -4.867,-8.476 v 8.476 h -1.086 V 31.578 h 1.243"
                   style="fill:#002864;fill-opacity:1;fill-rule:nonzero;stroke:none"
                   id="path5783" />
              </g>
            </g>
          </g>
        </g>
        <g
           id="g5785">
          <g
             id="g5787">
            <g
               id="g5789"
               clip-path="url(#clipPath5793)">
              <g
                 id="g5795">
                <path
                   d="m 153.52,34.41 c -0.29,-1.332 -1.082,-2.004 -2.325,-2.004 -1.82,0 -2.968,1.668 -2.968,4.285 0,2.633 1.148,4.27 2.984,4.27 1.422,0 2.297,-0.934 2.465,-2.633 h 1.086 c -0.184,2.313 -1.469,3.641 -3.504,3.641 -2.606,0 -4.254,-2.051 -4.254,-5.246 0,-1.84 0.516,-3.309 1.48,-4.258 0.707,-0.672 1.704,-1.07 2.727,-1.07 1.133,0 2.144,0.476 2.738,1.269 0.356,0.492 0.535,0.965 0.645,1.746 h -1.074"
                   style="fill:#002864;fill-opacity:1;fill-rule:nonzero;stroke:none"
                   id="path5797" />
              </g>
            </g>
          </g>
        </g>
        <g
           id="g5799">
          <g
             id="g5801">
            <g
               id="g5803"
               clip-path="url(#clipPath5807)">
              <g
                 id="g5809">
                <path
                   d="m 162.059,36 v 0.996 h -4.133 v 3.797 h 4.562 v 0.992 h -5.711 V 31.578 h 5.602 v 0.996 h -4.453 V 36 h 4.133"
                   style="fill:#002864;fill-opacity:1;fill-rule:nonzero;stroke:none"
                   id="path5811" />
              </g>
            </g>
          </g>
        </g>
        <g
           id="g5813">
          <g
             id="g5815">
            <g
               id="g5817"
               clip-path="url(#clipPath5821)">
              <g
                 id="g5823">
                <path
                   d="M 6.992,51.41 C 6.703,50.078 5.906,49.406 4.668,49.406 c -1.82,0 -2.969,1.668 -2.969,4.285 0,2.633 1.149,4.27 2.985,4.27 1.421,0 2.296,-0.934 2.464,-2.633 h 1.086 c -0.183,2.313 -1.468,3.641 -3.504,3.641 -2.601,0 -4.257,-2.051 -4.257,-5.246 0,-1.84 0.523,-3.309 1.484,-4.258 0.707,-0.672 1.699,-1.07 2.727,-1.07 1.132,0 2.14,0.476 2.738,1.269 0.351,0.492 0.535,0.965 0.644,1.746 H 6.992"
                   style="fill:#002864;fill-opacity:1;fill-rule:nonzero;stroke:none"
                   id="path5825" />
              </g>
            </g>
          </g>
        </g>
        <g
           id="g5827">
          <g
             id="g5829">
            <g
               id="g5831"
               clip-path="url(#clipPath5835)">
              <g
                 id="g5837">
                <path
                   d="m 10.926,53.629 c 0,2.648 1.133,4.316 2.937,4.316 1.789,0 2.922,-1.652 2.922,-4.269 0,-2.586 -1.144,-4.27 -2.922,-4.27 -1.761,0 -2.937,1.699 -2.937,4.223 z m 7.086,0.047 c 0,3.152 -1.668,5.281 -4.149,5.281 -2.511,0 -4.164,-2.113 -4.164,-5.344 0,-3.058 1.731,-5.218 4.164,-5.218 2.465,0 4.149,2.144 4.149,5.281"
                   style="fill:#002864;fill-opacity:1;fill-rule:nonzero;stroke:none"
                   id="path5839" />
              </g>
            </g>
          </g>
        </g>
        <g
           id="g5841">
          <g
             id="g5843">
            <g
               id="g5845"
               clip-path="url(#clipPath5849)">
              <g
                 id="g5851">
                <path
                   d="m 20.855,53.629 c 0,2.648 1.133,4.316 2.938,4.316 1.789,0 2.922,-1.652 2.922,-4.269 0,-2.586 -1.145,-4.27 -2.922,-4.27 -1.762,0 -2.938,1.699 -2.938,4.223 z m 7.086,0.047 c 0,3.152 -1.668,5.281 -4.148,5.281 -2.512,0 -4.164,-2.113 -4.164,-5.344 0,-3.058 1.73,-5.218 4.164,-5.218 2.465,0 4.148,2.144 4.148,5.281"
                   style="fill:#002864;fill-opacity:1;fill-rule:nonzero;stroke:none"
                   id="path5853" />
              </g>
            </g>
          </g>
        </g>
        <g
           id="g5855">
          <g
             id="g5857">
            <g
               id="g5859"
               clip-path="url(#clipPath5863)">
              <g
                 id="g5865">
                <path
                   d="m 31.961,53.629 c 1.059,0 1.426,-0.031 1.898,-0.137 0.86,-0.199 1.332,-0.859 1.332,-1.851 0,-0.887 -0.382,-1.563 -1.039,-1.821 -0.507,-0.199 -0.918,-0.246 -2.312,-0.246 h -0.598 v 4.055 z m -0.184,-5.051 c 1.516,0 2.207,0.063 2.817,0.277 1.117,0.383 1.808,1.422 1.808,2.786 0,1.269 -0.582,2.234 -1.593,2.648 -0.641,0.258 -1.254,0.336 -2.817,0.336 h -0.75 v 4.16 H 30.094 V 48.578 h 1.683"
                   style="fill:#002864;fill-opacity:1;fill-rule:nonzero;stroke:none"
                   id="path5867" />
              </g>
            </g>
          </g>
        </g>
        <g
           id="g5869">
          <g
             id="g5871">
            <g
               id="g5873"
               clip-path="url(#clipPath5877)">
              <g
                 id="g5879">
                <path
                   d="m 43.469,53 v 0.996 h -4.133 v 3.797 h 4.562 v 0.992 h -5.71 V 48.578 h 5.601 v 0.996 H 39.336 V 53 h 4.133"
                   style="fill:#002864;fill-opacity:1;fill-rule:nonzero;stroke:none"
                   id="path5881" />
              </g>
            </g>
          </g>
        </g>
        <g
           id="g5883">
          <g
             id="g5885">
            <g
               id="g5887"
               clip-path="url(#clipPath5891)">
              <g
                 id="g5893">
                <path
                   d="m 47.781,53.43 c 1.242,0 1.594,-0.032 2.067,-0.2 0.718,-0.257 1.148,-0.918 1.148,-1.773 0,-0.766 -0.367,-1.379 -0.965,-1.637 -0.488,-0.215 -0.824,-0.246 -2.277,-0.246 h -0.692 v 3.856 z m -0.058,-4.852 c 1.574,0 2.156,0.063 2.828,0.32 1.027,0.383 1.656,1.364 1.656,2.575 0,1.343 -0.707,2.265 -2.098,2.769 l 2.676,4.543 H 51.41 l -2.57,-4.359 h -1.778 v 4.359 H 45.914 V 48.578 h 1.809"
                   style="fill:#002864;fill-opacity:1;fill-rule:nonzero;stroke:none"
                   id="path5895" />
              </g>
            </g>
          </g>
        </g>
        <g
           id="g5897">
          <g
             id="g5899">
            <g
               id="g5901"
               clip-path="url(#clipPath5905)">
              <g
                 id="g5907">
                <path
                   d="m 57.543,50.004 -1.605,5.078 h 3.214 z m 0.504,-1.488 3.523,10.269 h -1.195 l -0.902,-2.707 h -3.84 l -0.922,2.707 h -1.176 l 3.52,-10.269 h 0.992"
                   style="fill:#002864;fill-opacity:1;fill-rule:nonzero;stroke:none"
                   id="path5909" />
              </g>
            </g>
          </g>
        </g>
        <g
           id="g5911">
          <g
             id="g5913">
            <g
               id="g5915"
               clip-path="url(#clipPath5919)">
              <g
                 id="g5921">
                <path
                   d="m 67.859,48.578 v 0.996 h -2.664 v 9.211 h -1.148 v -9.211 h -2.649 v -0.996 h 6.461"
                   style="fill:#002864;fill-opacity:1;fill-rule:nonzero;stroke:none"
                   id="path5923" />
              </g>
            </g>
          </g>
        </g>
        <g
           id="g5925">
          <g
             id="g5927">
            <g
               id="g5929"
               clip-path="url(#clipPath5933)">
              <g
                 id="g5935">
                <path
                   d="m 69.508,48.578 h 1.18 v 10.207 h -1.18 z"
                   style="fill:#002864;fill-opacity:1;fill-rule:nonzero;stroke:none"
                   id="path5937" />
              </g>
            </g>
          </g>
        </g>
        <g
           id="g5939">
          <g
             id="g5941">
            <g
               id="g5943"
               clip-path="url(#clipPath5947)">
              <g
                 id="g5949">
                <path
                   d="m 74.023,53.629 c 0,2.648 1.133,4.316 2.938,4.316 1.793,0 2.926,-1.652 2.926,-4.269 0,-2.586 -1.149,-4.27 -2.926,-4.27 -1.758,0 -2.938,1.699 -2.938,4.223 z m 7.086,0.047 c 0,3.152 -1.668,5.281 -4.148,5.281 -2.508,0 -4.164,-2.113 -4.164,-5.344 0,-3.058 1.73,-5.218 4.164,-5.218 2.465,0 4.148,2.144 4.148,5.281"
                   style="fill:#002864;fill-opacity:1;fill-rule:nonzero;stroke:none"
                   id="path5951" />
              </g>
            </g>
          </g>
        </g>
        <g
           id="g5953">
          <g
             id="g5955">
            <g
               id="g5957"
               clip-path="url(#clipPath5961)">
              <g
                 id="g5963">
                <path
                   d="m 84.504,48.578 4.898,8.496 v -8.496 h 1.071 v 10.207 h -1.254 l -4.867,-8.476 v 8.476 H 83.266 V 48.578 h 1.238"
                   style="fill:#002864;fill-opacity:1;fill-rule:nonzero;stroke:none"
                   id="path5965" />
              </g>
            </g>
          </g>
        </g>
        <g
           id="g5967">
          <g
             id="g5969">
            <g
               id="g5971"
               clip-path="url(#clipPath5975)">
              <g
                 id="g5977">
                <path
                   d="m 98.031,48.578 v 6.016 c 0,1.562 0.059,1.957 0.367,2.418 0.383,0.597 1.133,0.933 2.094,0.933 1.117,0 1.946,-0.461 2.25,-1.254 0.168,-0.398 0.199,-0.796 0.199,-2.097 v -6.016 h 1.149 v 6.031 c 0,1.621 -0.031,1.899 -0.246,2.45 -0.489,1.207 -1.711,1.898 -3.352,1.898 -1.652,0 -2.875,-0.691 -3.367,-1.898 -0.215,-0.551 -0.242,-0.829 -0.242,-2.45 v -6.031 h 1.148"
                   style="fill:#002864;fill-opacity:1;fill-rule:nonzero;stroke:none"
                   id="path5979" />
              </g>
            </g>
          </g>
        </g>
        <g
           id="g5981">
          <g
             id="g5983">
            <g
               id="g5985"
               clip-path="url(#clipPath5989)">
              <g
                 id="g5991">
                <path
                   d="m 107.867,48.578 4.899,8.496 v -8.496 h 1.07 v 10.207 h -1.258 l -4.863,-8.476 v 8.476 h -1.086 V 48.578 h 1.238"
                   style="fill:#002864;fill-opacity:1;fill-rule:nonzero;stroke:none"
                   id="path5993" />
              </g>
            </g>
          </g>
        </g>
        <g
           id="g5995">
          <g
             id="g5997">
            <g
               id="g5999"
               clip-path="url(#clipPath6003)">
              <g
                 id="g6005">
                <path
                   d="m 116.496,48.578 h 1.18 v 10.207 h -1.18 z"
                   style="fill:#002864;fill-opacity:1;fill-rule:nonzero;stroke:none"
                   id="path6007" />
              </g>
            </g>
          </g>
        </g>
        <g
           id="g6009">
          <g
             id="g6011">
            <g
               id="g6013"
               clip-path="url(#clipPath6017)">
              <g
                 id="g6019">
                <path
                   d="m 125.785,48.578 v 0.996 h -2.664 v 9.211 h -1.148 v -9.211 h -2.649 v -0.996 h 6.461"
                   style="fill:#002864;fill-opacity:1;fill-rule:nonzero;stroke:none"
                   id="path6021" />
              </g>
            </g>
          </g>
        </g>
      </g>
    </g>
  </g>
</svg>
